<svg xmlns="http://www.w3.org/2000/svg" viewBox="0 0 379.16 160.48"><defs><style>.cls-1{fill:#fd2968;}.cls-2{fill:#cb61f4;}.cls-3{fill:#02cfe7;}.cls-4{fill:#fff;}</style></defs><g id="Слой_2" data-name="Слой 2"><g id="_3_основні_варіанти_Фінал_готові_до_експорту" data-name="3 основні варіанти(Фінал), готові до експорту"><g id="Використав_на_мокапі" data-name="Використав на мокапі"><polygon class="cls-1" points="91.87 72.88 104.4 61.78 49.72 0 0.41 43.64 24.22 70.53 36.76 59.42 24.07 45.09 48.28 23.65 91.87 72.88"/><polygon class="cls-2" points="76.64 129.78 125.95 86.13 114.84 73.58 78.11 106.09 58.33 83.75 70.92 72.62 59.81 60.07 34.66 82.33 76.64 129.78"/><path class="cls-3" d="M42,160.48l22.88-20.26L53.75,127.67l-10.42,9.22L23.67,114.44,34,105.32,22.86,92.77,0,113Z"/><path class="cls-4" d="M141,110.29c0-3.28,2.35-6.56,6.72-9.08v-.34a7.42,7.42,0,0,1-4.2-6.73c0-2.6,1.76-5.54,4.87-7.65v-.33a13,13,0,0,1-5-10.59c0-8.92,7.4-14.63,16.06-14.63a16.42,16.42,0,0,1,6,1h16.9v5.63H171.73a12.38,12.38,0,0,1,3.44,8.24c0,8.74-7,14-15.8,14a17.67,17.67,0,0,1-6.9-1.52c-2,1.26-3.19,2.78-3.19,4.71,0,3.2,3.11,4.71,8.49,4.71h9.16c10.51,0,15.56,2.69,15.56,9.58,0,7.65-8.83,14.29-22.7,14.29C147.85,121.63,141,117.52,141,110.29Zm34.72-1.85c0-3.87-3.11-5-9.33-5h-8a22.82,22.82,0,0,1-6.22-.68c-3.87,2.11-5.21,4.46-5.21,6.81,0,4.29,4.62,7,13.36,7C169.79,116.59,175.68,112.64,175.68,108.44Zm-6.9-32.87a9.42,9.42,0,1,0-18.83,0,9.25,9.25,0,0,0,9.42,9.66C164.58,85.23,168.78,81.45,168.78,75.57Z"/><path class="cls-4" d="M230.57,80.11c0-11.52-6.9-19.17-18.67-19.17-10.93,0-20.84,8.07-20.84,21.35,0,13.62,9.75,21.52,22,21.52a28,28,0,0,0,15.81-4.87l-2.53-4.54a22.26,22.26,0,0,1-12.44,3.87c-8.48,0-15.06-4.7-15.88-14h32.19A28,28,0,0,0,230.57,80.11Zm-32.36-1.18c1.28-8.06,7.18-12.53,13.86-12.53,7,0,11.61,4.16,12.21,12.53Z"/><path class="cls-4" d="M250.09,86.91V67.58h-11.6V62.37L250.35,62V48.83h6.73V62h20v5.63h-20V87c0,7.31,2.44,11.1,10.34,11.1a26.87,26.87,0,0,0,9.75-1.85l1.52,5.12a35.54,35.54,0,0,1-12.78,2.44C254,103.81,250.09,97,250.09,86.91Z"/><polygon class="cls-4" points="379.16 33.65 379.16 45.97 358.28 45.97 358.41 117.56 341.17 117.56 341.03 45.97 320.51 45.97 320.51 90.78 331.47 90.78 331.47 103.09 292.31 103.09 292.31 90.78 303.27 90.78 303.27 45.97 292.31 45.97 292.31 33.65 379.16 33.65"/><rect class="cls-4" x="303.27" y="5.38" width="17.24" height="17.24"/></g></g></g></svg>